# xmcd
#
# Track frame offsets:
# 150
# 1529
# 4887
# 20311
# 41597
# 59880
# 67879
# 86136
# 107910
# 110596
# 124400
# 140608
# 159868
# 178889
# 181884
# 200556
# 213482
# 237348
#
# Disc length: 3458 seconds
#
#
# Revision: 0
# Processed by: cddbd v1.5.2PL0 Copyright (c) Steve Scherf et al.
# Submitted via: FreeRIP 2.945 
#
DISCID=fd0d8012
DTITLE=Various Artist - Spin List SE Always In The Game
DYEAR=1900
DGENRE=Hip-Hop
TTITLE0=the oracle intro
TTITLE1=intro mixtape
TTITLE2=Can We Go Back(TKweli Ayak)
TTITLE3=Josephine(Ghostface Dion)
TTITLE4=March(BustaRhymes)
TTITLE5=1800Homicide(Game Dion)
TTITLE6=Keep It Movin(Q Tip Kurupt)
TTITLE7=Where It Started At New York
TTITLE8=Voices Interlude
TTITLE9=The Format
TTITLE10=Trigger Inst
TTITLE11=Guns Still Hot(DJ Premier)
TTITLE12=Where Im From
TTITLE13=TimeWaits Intro
TTITLE14=PleasureBeforePain(J Rawls)
TTITLE15=People Goin Down(Willie C Band)
TTITLE16=Yesterday
TTITLE17=So Tired
EXTD=
EXTT0=
EXTT1=
EXTT2=
EXTT3=
EXTT4=
EXTT5=
EXTT6=
EXTT7=
EXTT8=
EXTT9=
EXTT10=
EXTT11=
EXTT12=
EXTT13=
EXTT14=
EXTT15=
EXTT16=
EXTT17=
PLAYORDER=
